<?xml version="1.0" ?>
<!-- Uploaded to: SVG Repo, www.svgrepo.com, Generator: SVG Repo Mixer Tools -->
<svg width="800px" height="800px" viewBox="0 0 64 64" xmlns="http://www.w3.org/2000/svg">
<defs>
<style>.cls-1{fill:#d8d8fc;}.cls-2{fill:#fdbf00;}.cls-3{fill:#f03800;}.cls-4{fill:#ffcebf;}.cls-5{fill:#4bb9ec;}</style>
</defs>
<title/>
<g id="task">
<circle class="cls-1" cx="26" cy="46" r="3.648"/>
<path class="cls-1" d="M7,59H45V5H7ZM36.884,47.593a1,1,0,0,1-.777.832l-1.288.28a9.285,9.285,0,0,1-.67,1.618l.713,1.109a1,1,0,0,1-.04,1.138,10.975,10.975,0,0,1-2.252,2.252,1,1,0,0,1-1.138.04l-1.108-.714a9.259,9.259,0,0,1-1.619.671l-.28,1.288a1,1,0,0,1-.832.777,10.971,10.971,0,0,1-3.186,0,1,1,0,0,1-.832-.777l-.28-1.288a9.289,9.289,0,0,1-1.618-.67l-1.109.713a1,1,0,0,1-1.138-.04,10.974,10.974,0,0,1-2.252-2.252,1,1,0,0,1-.04-1.138l.714-1.108a9.259,9.259,0,0,1-.671-1.619l-1.288-.28a1,1,0,0,1-.777-.832,10.971,10.971,0,0,1,0-3.186,1,1,0,0,1,.777-.832l1.288-.28a9.287,9.287,0,0,1,.67-1.618l-.713-1.109a1,1,0,0,1,.04-1.138,10.975,10.975,0,0,1,2.252-2.252,1,1,0,0,1,1.138-.04l1.108.714a9.254,9.254,0,0,1,1.619-.671l.28-1.288a1,1,0,0,1,.832-.777,10.975,10.975,0,0,1,3.186,0,1,1,0,0,1,.832.777l.28,1.288a9.282,9.282,0,0,1,1.618.67l1.109-.713a1,1,0,0,1,1.138.04,10.975,10.975,0,0,1,2.252,2.252,1,1,0,0,1,.04,1.138l-.714,1.108a9.254,9.254,0,0,1,.671,1.619l1.288.28a1,1,0,0,1,.777.832A10.975,10.975,0,0,1,36.884,47.593ZM11,8a1,1,0,0,1,1-1H40a1,1,0,0,1,1,1V20a1,1,0,0,1-1,1H12a1,1,0,0,1-1-1Zm1,15H40a1,1,0,0,1,0,2H12a1,1,0,0,1,0-2Zm0,4H40a1,1,0,0,1,0,2H12a1,1,0,0,1,0-2Zm0,4H40a1,1,0,0,1,0,2H12a1,1,0,0,1,0-2Z"/>
<path d="M46,3H6A1,1,0,0,0,5,4V60a1,1,0,0,0,1,1H46a1,1,0,0,0,1-1V4A1,1,0,0,0,46,3ZM45,59H7V5H45Z"/>
<rect class="cls-2" height="34" width="6" x="51" y="17"/>
<path class="cls-3" d="M51,56a3,3,0,0,0,6,0V53H51Z"/>
<polygon class="cls-4" points="51.387 15 56.613 15 54 7.162 51.387 15"/>
<path d="M58.942,15.662,54.949,3.684a1,1,0,0,0-1.9,0L49.058,15.662A1.024,1.024,0,0,0,49,16V56a5,5,0,0,0,10,0V16A1.026,1.026,0,0,0,58.942,15.662ZM57,56a3,3,0,0,1-6,0V53h6Zm0-5H51V17h6ZM51.387,15,54,7.162,56.613,15Z"/>
<path d="M12,25H40a1,1,0,0,0,0-2H12a1,1,0,0,0,0,2Z"/>
<path d="M12,29H40a1,1,0,0,0,0-2H12a1,1,0,0,0,0,2Z"/>
<path d="M12,33H40a1,1,0,0,0,0-2H12a1,1,0,0,0,0,2Z"/>
<rect class="cls-5" height="10" width="26" x="13" y="9"/>
<path d="M12,21H40a1,1,0,0,0,1-1V8a1,1,0,0,0-1-1H12a1,1,0,0,0-1,1V20A1,1,0,0,0,12,21ZM13,9H39V19H13Z"/>
<path class="cls-2" d="M33.038,44.369a7.239,7.239,0,0,0-.908-2.192,1,1,0,0,1,.007-1.07l.653-1.015a9.2,9.2,0,0,0-.882-.882l-1.015.653a1,1,0,0,1-1.07.007,7.239,7.239,0,0,0-2.192-.908,1,1,0,0,1-.751-.762l-.256-1.178h0a8.95,8.95,0,0,0-1.247,0L25.12,38.2a1,1,0,0,1-.751.762,7.24,7.24,0,0,0-2.192.908,1,1,0,0,1-1.07-.007l-1.015-.653a9.184,9.184,0,0,0-.882.882l.653,1.015a1,1,0,0,1,.007,1.07,7.241,7.241,0,0,0-.908,2.192,1,1,0,0,1-.762.751l-1.178.257a8.95,8.95,0,0,0,0,1.247l1.178.256a1,1,0,0,1,.762.751,7.242,7.242,0,0,0,.908,2.192,1,1,0,0,1-.007,1.07l-.653,1.015a9.17,9.17,0,0,0,.882.882l1.015-.653a1,1,0,0,1,1.07-.007,7.242,7.242,0,0,0,2.192.908,1,1,0,0,1,.751.762l.257,1.178a8.95,8.95,0,0,0,1.247,0L26.88,53.8a1,1,0,0,1,.751-.762,7.241,7.241,0,0,0,2.192-.908,1,1,0,0,1,1.07.007l1.015.653a9.184,9.184,0,0,0,.882-.882l-.653-1.015a1,1,0,0,1-.007-1.07,7.24,7.24,0,0,0,.908-2.192,1,1,0,0,1,.762-.751l1.178-.257a8.95,8.95,0,0,0,0-1.247L33.8,45.12A1,1,0,0,1,33.038,44.369ZM26,51.648A5.648,5.648,0,1,1,31.648,46,5.651,5.651,0,0,1,26,51.648Z"/>
<path d="M36.107,43.575l-1.288-.28a9.254,9.254,0,0,0-.671-1.619l.714-1.108a1,1,0,0,0-.04-1.138,10.975,10.975,0,0,0-2.252-2.252,1,1,0,0,0-1.138-.04l-1.109.713a9.282,9.282,0,0,0-1.618-.67l-.28-1.288a1,1,0,0,0-.832-.777,10.975,10.975,0,0,0-3.186,0,1,1,0,0,0-.832.777l-.28,1.288a9.254,9.254,0,0,0-1.619.671l-1.108-.714a1,1,0,0,0-1.138.04,10.975,10.975,0,0,0-2.252,2.252,1,1,0,0,0-.04,1.138l.713,1.109a9.287,9.287,0,0,0-.67,1.618l-1.288.28a1,1,0,0,0-.777.832,10.971,10.971,0,0,0,0,3.186,1,1,0,0,0,.777.832l1.288.28a9.259,9.259,0,0,0,.671,1.619l-.714,1.108a1,1,0,0,0,.04,1.138,10.974,10.974,0,0,0,2.252,2.252,1,1,0,0,0,1.138.04l1.109-.713a9.289,9.289,0,0,0,1.618.67l.28,1.288a1,1,0,0,0,.832.777,10.971,10.971,0,0,0,3.186,0,1,1,0,0,0,.832-.777l.28-1.288a9.259,9.259,0,0,0,1.619-.671l1.108.714a1,1,0,0,0,1.138-.04,10.975,10.975,0,0,0,2.252-2.252,1,1,0,0,0,.04-1.138l-.713-1.109a9.285,9.285,0,0,0,.67-1.618l1.288-.28a1,1,0,0,0,.777-.832,10.975,10.975,0,0,0,0-3.186A1,1,0,0,0,36.107,43.575Zm-1.129,3.048L33.8,46.88a1,1,0,0,0-.762.751,7.24,7.24,0,0,1-.908,2.192,1,1,0,0,0,.007,1.07l.653,1.015a9.184,9.184,0,0,1-.882.882l-1.015-.653a1,1,0,0,0-1.07-.007,7.241,7.241,0,0,1-2.192.908,1,1,0,0,0-.751.762l-.256,1.178a8.95,8.95,0,0,1-1.247,0L25.12,53.8a1,1,0,0,0-.751-.762,7.242,7.242,0,0,1-2.192-.908,1,1,0,0,0-1.07.007l-1.015.653a9.17,9.17,0,0,1-.882-.882l.653-1.015a1,1,0,0,0,.007-1.07,7.242,7.242,0,0,1-.908-2.192,1,1,0,0,0-.762-.751l-1.178-.256a8.95,8.95,0,0,1,0-1.247L18.2,45.12a1,1,0,0,0,.762-.751,7.241,7.241,0,0,1,.908-2.192,1,1,0,0,0-.007-1.07l-.653-1.015a9.184,9.184,0,0,1,.882-.882l1.015.653a1,1,0,0,0,1.07.007,7.24,7.24,0,0,1,2.192-.908,1,1,0,0,0,.751-.762l.256-1.178a8.95,8.95,0,0,1,1.247,0h0L26.88,38.2a1,1,0,0,0,.751.762,7.239,7.239,0,0,1,2.192.908,1,1,0,0,0,1.07-.007l1.015-.653a9.2,9.2,0,0,1,.882.882l-.653,1.015a1,1,0,0,0-.007,1.07,7.239,7.239,0,0,1,.908,2.192,1,1,0,0,0,.762.751l1.178.256A8.95,8.95,0,0,1,34.978,46.623Z"/>
<path d="M26,40.352A5.648,5.648,0,1,0,31.648,46,5.651,5.651,0,0,0,26,40.352Zm0,9.3A3.648,3.648,0,1,1,29.648,46,3.649,3.649,0,0,1,26,49.648Z"/>
</g>
</svg>